<svg xmlns="http://www.w3.org/2000/svg" viewBox="0 0 1920 1080" preserveAspectRatio="xMidYMid slice">
  <defs>
    <linearGradient id="sky" x1="0" y1="0" x2="1" y2="1">
      <stop offset="0" stop-color="#7bb7ff"/>
      <stop offset="0.36" stop-color="#b8d7ff"/>
      <stop offset="0.68" stop-color="#ffd6ca"/>
      <stop offset="1" stop-color="#fff1d7"/>
    </linearGradient>
    <linearGradient id="haze" x1="0" y1="0" x2="0" y2="1">
      <stop offset="0" stop-color="#ffffff" stop-opacity="0.54"/>
      <stop offset="1" stop-color="#ffffff" stop-opacity="0"/>
    </linearGradient>
    <linearGradient id="ring" x1="0" y1="0" x2="1" y2="1">
      <stop offset="0" stop-color="#ffffff" stop-opacity="0.9"/>
      <stop offset="0.48" stop-color="#7cf4ef" stop-opacity="0.78"/>
      <stop offset="1" stop-color="#7c5cff" stop-opacity="0.64"/>
    </linearGradient>
    <linearGradient id="hillA" x1="0" y1="0" x2="0" y2="1">
      <stop offset="0" stop-color="#5f8fb8"/>
      <stop offset="1" stop-color="#2b5877"/>
    </linearGradient>
    <linearGradient id="hillB" x1="0" y1="0" x2="0" y2="1">
      <stop offset="0" stop-color="#8dbfbb"/>
      <stop offset="1" stop-color="#497c86"/>
    </linearGradient>
    <filter id="softBlur">
      <feGaussianBlur stdDeviation="10"/>
    </filter>
  </defs>

  <rect width="1920" height="1080" fill="url(#sky)"/>
  <rect width="1920" height="520" fill="url(#haze)"/>

  <g opacity="0.72">
    <path d="M0 360 C210 250 350 280 520 210 C700 136 840 170 1020 92 C1220 8 1440 42 1660 0 L1920 0 L1920 460 C1600 374 1320 418 1030 350 C760 286 520 360 300 396 C170 418 80 404 0 440 Z" fill="#f7fbff" opacity="0.34"/>
    <path d="M-60 470 C170 336 370 388 560 294 C760 194 920 248 1110 170 C1380 62 1610 138 1980 42 L1980 530 C1640 480 1460 438 1190 450 C840 464 690 388 410 460 C230 506 100 536 -60 520 Z" fill="#f6ffff" opacity="0.32"/>
  </g>

  <g transform="translate(1360 260)">
    <ellipse cx="0" cy="0" rx="334" ry="104" fill="none" stroke="url(#ring)" stroke-width="7" opacity="0.76" transform="rotate(-20)"/>
    <ellipse cx="0" cy="0" rx="272" ry="84" fill="none" stroke="url(#ring)" stroke-width="5" opacity="0.56" transform="rotate(24)"/>
    <ellipse cx="0" cy="0" rx="210" ry="64" fill="none" stroke="#ffffff" stroke-width="3" opacity="0.62" transform="rotate(70)"/>
    <circle cx="0" cy="0" r="78" fill="#fff7d9" opacity="0.88"/>
    <circle cx="-20" cy="-18" r="104" fill="#ffffff" opacity="0.18" filter="url(#softBlur)"/>
    <path d="M-360 4 C-290 -64 -164 -96 -38 -72 C120 -40 232 16 360 -24" fill="none" stroke="#ffffff" stroke-width="5" opacity="0.45" stroke-linecap="round"/>
    <path d="M-310 78 C-212 28 -92 18 38 42 C168 66 246 98 334 60" fill="none" stroke="#7cf4ef" stroke-width="4" opacity="0.42" stroke-linecap="round"/>
  </g>

  <g opacity="0.42">
    <path d="M170 190 L240 174 L232 246 Z" fill="#ffffff"/>
    <path d="M330 282 L390 268 L380 330 Z" fill="#ffffff"/>
    <path d="M1650 420 L1710 406 L1700 466 Z" fill="#ffffff"/>
    <path d="M1518 142 L1572 130 L1564 184 Z" fill="#ffffff"/>
  </g>

  <path d="M0 664 C150 574 290 594 430 526 C590 448 740 482 930 418 C1120 354 1330 392 1510 318 C1690 244 1810 286 1920 236 L1920 1080 L0 1080 Z" fill="url(#hillA)" opacity="0.62"/>
  <path d="M0 748 C170 650 360 690 548 592 C730 498 910 560 1090 476 C1294 382 1460 454 1620 396 C1772 340 1870 360 1920 322 L1920 1080 L0 1080 Z" fill="url(#hillB)" opacity="0.74"/>
  <path d="M0 826 C250 766 370 826 596 730 C760 660 966 712 1136 638 C1356 540 1540 620 1706 570 C1810 538 1868 540 1920 520 L1920 1080 L0 1080 Z" fill="#37606b" opacity="0.74"/>

  <g opacity="0.88">
    <path d="M0 820 C208 786 330 844 520 808 C700 774 870 792 1048 752 C1260 704 1414 740 1590 710 C1740 684 1840 686 1920 670 L1920 1080 L0 1080 Z" fill="#2f5562"/>
    <path d="M0 900 C200 862 370 908 560 862 C750 816 920 846 1110 810 C1320 770 1510 814 1708 786 C1806 772 1878 780 1920 764 L1920 1080 L0 1080 Z" fill="#264652"/>
  </g>

  <g transform="translate(116 706)" opacity="0.88">
    <path d="M0 118 L170 22 L340 118 L340 260 L0 260 Z" fill="#1d3344"/>
    <path d="M-18 126 L170 0 L358 126 L328 132 L170 32 L12 132 Z" fill="#ff8a7a"/>
    <rect x="54" y="154" width="58" height="78" rx="8" fill="#ffd9a3"/>
    <rect x="154" y="142" width="60" height="48" rx="8" fill="#9ee7ff"/>
    <rect x="244" y="142" width="52" height="48" rx="8" fill="#9ee7ff"/>
  </g>

  <g opacity="0.52">
    <path d="M1220 770 L1220 598 L1268 598 L1268 770 Z" fill="#1f3c4d"/>
    <path d="M1288 770 L1288 552 L1346 552 L1346 770 Z" fill="#223f52"/>
    <path d="M1370 770 L1370 622 L1420 622 L1420 770 Z" fill="#1d3848"/>
    <path d="M1450 770 L1450 574 L1510 574 L1510 770 Z" fill="#213d4d"/>
    <path d="M1540 770 L1540 640 L1588 640 L1588 770 Z" fill="#1b3444"/>
  </g>

  <rect y="824" width="1920" height="256" fill="#ffffff" opacity="0.12"/>
</svg>
