<svg width="1920" height="1080" viewBox="0 0 1920 1080" xmlns="http://www.w3.org/2000/svg">
  <defs>
    <linearGradient id="sky" x1="0" y1="0" x2="0" y2="1">
      <stop offset="0%" stop-color="#0b0f22"/>
      <stop offset="45%" stop-color="#161a33"/>
      <stop offset="78%" stop-color="#2a2350"/>
      <stop offset="100%" stop-color="#3a2a52"/>
    </linearGradient>
    <radialGradient id="sun" cx="50%" cy="50%" r="50%">
      <stop offset="0%" stop-color="#ffd9a0" stop-opacity="0.85"/>
      <stop offset="45%" stop-color="#ff9d6c" stop-opacity="0.35"/>
      <stop offset="100%" stop-color="#ff9d6c" stop-opacity="0"/>
    </radialGradient>
    <linearGradient id="farHills" x1="0" y1="0" x2="0" y2="1">
      <stop offset="0%" stop-color="#241f3f"/>
      <stop offset="100%" stop-color="#1a1730"/>
    </linearGradient>
    <linearGradient id="nearHills" x1="0" y1="0" x2="0" y2="1">
      <stop offset="0%" stop-color="#171429"/>
      <stop offset="100%" stop-color="#100e1f"/>
    </linearGradient>
    <linearGradient id="houseBody" x1="0" y1="0" x2="0" y2="1">
      <stop offset="0%" stop-color="#171a2c"/>
      <stop offset="100%" stop-color="#0d0f1c"/>
    </linearGradient>
    <linearGradient id="windowGlow" x1="0" y1="0" x2="0" y2="1">
      <stop offset="0%" stop-color="#ffe1a8"/>
      <stop offset="100%" stop-color="#ff9d6c"/>
    </linearGradient>
    <radialGradient id="glowSoft" cx="50%" cy="50%" r="50%">
      <stop offset="0%" stop-color="#ffcf8a" stop-opacity="0.55"/>
      <stop offset="100%" stop-color="#ffcf8a" stop-opacity="0"/>
    </radialGradient>
    <radialGradient id="accentGlow" cx="50%" cy="50%" r="50%">
      <stop offset="0%" stop-color="#20b8b4" stop-opacity="0.3"/>
      <stop offset="100%" stop-color="#20b8b4" stop-opacity="0"/>
    </radialGradient>
    <linearGradient id="water" x1="0" y1="0" x2="0" y2="1">
      <stop offset="0%" stop-color="#1c1a35"/>
      <stop offset="100%" stop-color="#0a0a16"/>
    </linearGradient>
  </defs>

  <rect x="0" y="0" width="1920" height="1080" fill="url(#sky)"/>

  <circle cx="1500" cy="330" r="380" fill="url(#sun)"/>
  <circle cx="1500" cy="330" r="70" fill="#ffe9c7" opacity="0.9"/>

  <g opacity="0.8">
    <circle cx="180" cy="120" r="1.6" fill="#ffffff"/>
    <circle cx="340" cy="210" r="1.2" fill="#ffffff"/>
    <circle cx="520" cy="90" r="1.4" fill="#ffffff"/>
    <circle cx="760" cy="150" r="1.1" fill="#ffffff"/>
    <circle cx="980" cy="70" r="1.6" fill="#ffffff"/>
    <circle cx="1150" cy="140" r="1.2" fill="#ffffff"/>
    <circle cx="230" cy="300" r="1.1" fill="#ffffff"/>
    <circle cx="90" cy="230" r="1.3" fill="#ffffff"/>
    <circle cx="620" cy="230" r="1.1" fill="#ffffff"/>
    <circle cx="1750" cy="130" r="1.3" fill="#ffffff"/>
    <circle cx="1850" cy="250" r="1.1" fill="#ffffff"/>
    <circle cx="1680" cy="60" r="1.5" fill="#ffffff"/>
  </g>

  <path d="M0,620 L120,560 L260,600 L420,530 L600,580 L780,520 L960,570
           L1140,510 L1320,565 L1500,520 L1680,575 L1860,530 L1920,560
           L1920,720 L0,720 Z" fill="url(#farHills)"/>

  <path d="M0,700 L160,650 L340,690 L520,630 L720,680 L900,620 L1100,670
           L1300,610 L1500,660 L1700,615 L1920,655
           L1920,780 L0,780 Z" fill="url(#nearHills)"/>

  <circle cx="1500" cy="330" r="130" fill="url(#glowSoft)"/>
  <circle cx="300" cy="500" r="200" fill="url(#accentGlow)"/>

  <g>
    <rect x="560" y="560" width="800" height="220" fill="url(#houseBody)"/>
    <path d="M560,560 L960,430 L1360,560 Z" fill="#12142400" opacity="0"/>
    <path d="M560,560 L960,440 L1360,560 L1230,560 L960,485 L690,560 Z" fill="#141428"/>

    <rect x="600" y="600" width="130" height="90" rx="4" fill="url(#windowGlow)" opacity="0.92"/>
    <rect x="600" y="600" width="130" height="90" rx="4" fill="none" stroke="#0d0f1c" stroke-width="4"/>
    <line x1="665" y1="600" x2="665" y2="690" stroke="#0d0f1c" stroke-width="3"/>
    <line x1="600" y1="645" x2="730" y2="645" stroke="#0d0f1c" stroke-width="3"/>

    <rect x="770" y="600" width="130" height="90" rx="4" fill="url(#windowGlow)" opacity="0.7"/>
    <rect x="770" y="600" width="130" height="90" rx="4" fill="none" stroke="#0d0f1c" stroke-width="4"/>
    <line x1="835" y1="600" x2="835" y2="690" stroke="#0d0f1c" stroke-width="3"/>
    <line x1="770" y1="645" x2="900" y2="645" stroke="#0d0f1c" stroke-width="3"/>

    <rect x="1000" y="600" width="220" height="180" fill="#101226"/>
    <rect x="1030" y="630" width="160" height="150" fill="url(#windowGlow)" opacity="0.85"/>
    <line x1="1110" y1="630" x2="1110" y2="780" stroke="#0d0f1c" stroke-width="4"/>
    <line x1="1030" y1="705" x2="1190" y2="705" stroke="#0d0f1c" stroke-width="4"/>

    <rect x="1250" y="600" width="90" height="90" rx="4" fill="url(#windowGlow)" opacity="0.6"/>
    <rect x="1250" y="600" width="90" height="90" rx="4" fill="none" stroke="#0d0f1c" stroke-width="4"/>

    <rect x="560" y="770" width="800" height="14" fill="#0a0b16"/>

    <circle cx="500" cy="705" r="7" fill="#ffcf8a" opacity="0.9"/>
    <circle cx="500" cy="705" r="18" fill="url(#glowSoft)"/>
    <circle cx="1420" cy="705" r="7" fill="#ffcf8a" opacity="0.9"/>
    <circle cx="1420" cy="705" r="18" fill="url(#glowSoft)"/>
  </g>

  <g opacity="0.85">
    <path d="M150,780 C170,690 210,650 245,630 C230,660 225,700 235,780 Z" fill="#12112090"/>
    <path d="M150,780 C130,700 90,660 55,640 C75,670 85,710 95,780 Z" fill="#0d0c1890"/>
    <path d="M1700,780 C1720,700 1760,655 1795,630 C1780,665 1775,705 1785,780 Z" fill="#12112090"/>
    <path d="M1700,780 C1680,695 1640,655 1605,635 C1625,665 1635,710 1645,780 Z" fill="#0d0c1890"/>
  </g>

  <rect x="0" y="780" width="1920" height="300" fill="url(#water)"/>
  <g opacity="0.35">
    <rect x="600" y="800" width="120" height="6" fill="#ffcf8a"/>
    <rect x="990" y="815" width="220" height="6" fill="#ffcf8a"/>
    <rect x="1420" y="805" width="90" height="5" fill="#ffcf8a"/>
    <rect x="600" y="825" width="90" height="4" fill="#ffcf8a"/>
    <rect x="1000" y="845" width="180" height="4" fill="#ffcf8a"/>
  </g>

  <rect x="0" y="0" width="1920" height="1080" fill="#05070f" opacity="0.06"/>
</svg>
